<?xml version="1.0" encoding="UTF-8" standalone="no"?><!-- Generator: Gravit.io --><svg xmlns="http://www.w3.org/2000/svg" xmlns:xlink="http://www.w3.org/1999/xlink" style="isolation:isolate" viewBox="0 0 217.992 35.769" width="217.992pt" height="35.769pt"><g><g><g><path d=" M 184.531 30.778 C 184.531 30.287 184.202 29.96 183.707 29.96 L 169.363 29.96 C 168.869 29.96 168.539 30.287 168.539 30.778 C 168.539 31.269 168.869 31.596 169.363 31.596 L 183.707 31.596 C 184.202 31.596 184.531 31.187 184.531 30.778 Z " fill="rgb(18,100,180)"/><path d=" M 172.661 34.051 L 171.012 34.051 C 170.517 34.051 170.188 34.378 170.188 34.869 C 170.188 35.36 170.517 35.687 171.012 35.687 L 172.661 35.687 C 173.155 35.687 173.485 35.36 173.485 34.869 C 173.485 34.378 173.155 34.051 172.661 34.051 Z " fill="rgb(18,100,180)"/><path d=" M 176.535 26.687 C 176.535 26.196 176.205 25.869 175.711 25.869 L 167.715 25.869 C 167.22 25.869 166.89 26.196 166.89 26.687 C 166.89 27.178 167.22 27.505 167.715 27.505 L 175.711 27.505 C 176.205 27.505 176.535 27.096 176.535 26.687 Z " fill="rgb(18,100,180)"/><path d=" M 217.505 28.078 C 217.258 27.587 216.763 27.178 216.269 26.932 L 210.004 24.56 L 210.004 24.56 L 210.004 24.56 L 207.448 23.66 C 206.706 23.332 206.047 22.841 205.635 22.187 L 203.491 18.669 C 203.904 18.587 204.151 18.26 204.151 17.851 C 204.151 17.36 203.821 17.032 203.327 17.032 L 202.502 17.032 L 201.513 15.396 C 201.925 15.314 202.172 14.987 202.172 14.578 C 202.172 14.087 201.843 13.76 201.348 13.76 L 200.524 13.76 L 199.699 12.451 C 200.029 12.369 200.276 12.041 200.276 11.714 C 200.276 11.223 199.947 10.896 199.452 10.896 L 198.71 10.896 L 197.639 9.178 C 197.639 9.178 197.639 9.096 197.556 9.096 C 196.567 7.951 195.248 7.378 193.847 7.541 C 192.61 7.705 191.621 8.441 191.209 9.341 C 191.126 9.587 191.126 9.832 191.291 10.078 L 198.133 21.696 C 198.216 21.86 198.38 22.023 198.545 22.023 L 206.954 25.214 L 207.036 25.214 L 209.509 26.114 L 209.509 26.114 L 209.509 26.114 L 209.509 26.114 L 209.509 26.114 L 209.509 26.114 L 215.692 28.487 C 215.857 28.569 216.022 28.651 216.104 28.896 C 216.434 29.551 216.434 30.205 216.022 30.86 L 202.585 30.86 C 201.76 30.86 200.936 30.614 200.276 30.123 L 177.277 13.187 C 177.277 13.187 177.607 13.023 178.019 12.451 C 178.431 11.878 178.596 11.141 178.596 10.405 L 177.854 3.532 L 178.843 1.978 C 179.091 1.651 179.585 1.569 179.915 1.814 C 180.162 2.06 181.152 2.878 183.542 6.723 C 184.779 8.523 186.757 9.832 188.983 10.16 C 189.395 10.241 189.89 9.914 189.972 9.505 C 190.055 9.096 189.725 8.605 189.313 8.523 C 187.581 8.196 185.933 7.214 184.944 5.741 C 182.058 1.323 181.234 0.669 180.904 0.423 C 179.833 -0.313 178.349 -0.068 177.524 0.996 L 172.496 8.932 C 172.166 9.423 172.084 9.996 172.166 10.569 C 171.672 10.732 171.177 10.978 170.93 11.469 L 169.611 13.514 C 168.869 14.578 169.199 16.051 170.27 16.787 C 171.012 17.36 172.578 18.341 174.887 19.814 C 175.051 19.896 175.216 19.978 175.299 19.978 C 175.546 19.978 175.793 19.814 175.958 19.569 C 176.205 19.16 176.123 18.669 175.711 18.423 C 173.485 16.951 171.919 15.969 171.177 15.396 C 170.847 15.151 170.765 14.741 171.012 14.332 L 172.249 12.451 C 172.496 12.123 172.991 12.041 173.32 12.287 L 173.32 12.287 L 199.205 31.432 C 200.194 32.169 201.348 32.496 202.502 32.496 L 213.878 32.496 C 212.147 33.314 209.757 34.051 207.696 34.051 L 207.696 34.051 L 204.81 34.051 L 202.42 34.051 L 202.42 34.051 C 201.018 34.051 199.617 33.641 198.463 32.905 C 193.682 29.878 184.779 24.232 178.266 20.06 C 177.854 19.814 177.36 19.896 177.112 20.305 C 176.865 20.714 176.947 21.205 177.36 21.451 C 183.707 25.541 192.363 31.023 197.226 34.132 L 175.958 34.132 C 175.464 34.132 175.134 34.46 175.134 34.951 C 175.134 35.441 175.464 35.769 175.958 35.769 L 202.42 35.769 L 202.42 35.769 L 204.81 35.769 L 207.613 35.769 L 207.613 35.769 C 210.993 35.769 215.857 33.969 217.093 32.251 C 218.165 30.778 218.247 29.387 217.505 28.078 Z  M 199.287 20.714 L 192.857 9.832 C 193.105 9.587 193.517 9.341 194.011 9.26 C 194.506 9.178 195.413 9.26 196.237 10.16 L 196.732 10.978 L 195.99 10.978 C 195.495 10.978 195.166 11.305 195.166 11.796 C 195.166 12.287 195.495 12.614 195.99 12.614 L 197.721 12.614 L 198.545 13.923 L 197.886 13.923 C 197.391 13.923 197.062 14.251 197.062 14.741 C 197.062 15.232 197.391 15.56 197.886 15.56 L 199.535 15.56 L 200.524 17.114 L 199.864 17.114 C 199.37 17.114 199.04 17.441 199.04 17.932 C 199.04 18.423 199.37 18.751 199.864 18.751 L 201.513 18.751 L 203.821 22.351 L 199.287 20.714 Z  M 173.897 9.832 L 176.453 5.823 L 176.947 10.569 C 176.947 10.896 176.865 11.223 176.7 11.469 C 176.535 11.714 176.205 12.369 175.464 11.796 C 175.464 11.796 175.051 11.551 174.309 10.978 C 173.815 10.569 173.732 10.16 173.897 9.832 Z " fill="rgb(18,100,180)"/></g></g><path d=" M 7.251 26.618 L 5.142 28.933 L 5.142 34.558 L 0 34.558 L 0 13.229 L 5.142 13.229 L 5.142 22.634 L 6.929 19.924 L 11.528 13.229 L 17.886 13.229 L 10.679 22.663 L 17.886 34.558 L 11.792 34.558 L 7.251 26.618 Z " fill="rgb(18,100,180)"/><path d=" M 34.506 25.812 L 26.42 25.812 L 26.42 30.895 L 35.971 30.895 L 35.971 34.851 L 21.278 34.851 L 21.278 13.522 L 36 13.522 L 36 17.492 L 26.42 17.492 L 26.42 21.989 L 34.506 21.989 L 34.506 25.812 Z " fill="rgb(18,100,180)"/><path d=" M 68.475 29.182 C 68.475 28.43 68.208 27.844 67.676 27.424 C 67.144 27.004 66.209 26.569 64.871 26.12 C 63.533 25.671 62.439 25.236 61.59 24.816 C 58.826 23.459 57.444 21.594 57.444 19.221 C 57.444 18.039 57.789 16.997 58.477 16.093 C 59.166 15.19 60.14 14.487 61.399 13.984 C 62.659 13.481 64.075 13.229 65.647 13.229 C 67.181 13.229 68.555 13.503 69.771 14.05 C 70.987 14.597 71.932 15.375 72.605 16.386 C 73.279 17.397 73.616 18.552 73.616 19.851 L 68.489 19.851 C 68.489 18.981 68.223 18.308 67.691 17.829 C 67.159 17.351 66.438 17.111 65.53 17.111 C 64.612 17.111 63.887 17.314 63.355 17.719 C 62.823 18.124 62.557 18.64 62.557 19.265 C 62.557 19.811 62.85 20.307 63.436 20.751 C 64.021 21.196 65.052 21.655 66.526 22.128 C 68.001 22.602 69.212 23.112 70.159 23.659 C 72.464 24.987 73.616 26.818 73.616 29.152 C 73.616 31.018 72.913 32.482 71.507 33.547 C 70.101 34.611 68.172 35.144 65.721 35.144 C 63.992 35.144 62.427 34.833 61.026 34.213 C 59.625 33.593 58.57 32.744 57.862 31.665 C 57.154 30.585 56.8 29.343 56.8 27.936 L 61.956 27.936 C 61.956 29.079 62.251 29.921 62.842 30.463 C 63.433 31.005 64.393 31.276 65.721 31.276 C 66.57 31.276 67.242 31.093 67.735 30.727 C 68.228 30.361 68.475 29.846 68.475 29.182 Z " fill="rgb(18,100,180)"/><path d=" M 94.08 34.851 L 88.968 34.851 L 88.968 25.944 L 81.395 25.944 L 81.395 34.851 L 76.253 34.851 L 76.253 13.522 L 81.395 13.522 L 81.395 21.989 L 88.968 21.989 L 88.968 13.522 L 94.08 13.522 L 94.08 34.851 Z " fill="rgb(18,100,180)"/><path d=" M 115.394 24.626 C 115.394 26.706 115.008 28.547 114.236 30.148 C 113.465 31.75 112.369 32.983 110.948 33.847 C 109.527 34.711 107.908 35.144 106.092 35.144 C 104.275 35.144 102.664 34.726 101.258 33.891 C 99.852 33.056 98.755 31.862 97.969 30.31 C 97.183 28.757 96.771 26.975 96.731 24.963 L 96.731 23.762 C 96.731 21.672 97.115 19.829 97.881 18.232 C 98.648 16.635 99.747 15.402 101.177 14.533 C 102.608 13.664 104.236 13.229 106.063 13.229 C 107.869 13.229 109.48 13.659 110.896 14.519 C 112.313 15.378 113.414 16.601 114.2 18.188 C 114.986 19.775 115.384 21.594 115.394 23.644 L 115.394 24.626 Z  M 110.164 23.732 C 110.164 21.613 109.81 20.004 109.102 18.906 C 108.394 17.807 107.381 17.258 106.063 17.258 C 103.484 17.258 102.122 19.191 101.976 23.059 L 101.961 24.626 C 101.961 26.716 102.308 28.322 103.001 29.445 C 103.694 30.568 104.725 31.13 106.092 31.13 C 107.391 31.13 108.392 30.578 109.095 29.475 C 109.798 28.371 110.154 26.784 110.164 24.714 L 110.164 23.732 Z " fill-rule="evenodd" fill="rgb(18,100,180)"/><path d=" M 55.662 25.251 C 55.662 27.331 55.276 29.172 54.505 30.774 C 53.733 32.375 52.637 33.608 51.216 34.472 C 49.795 35.337 48.177 35.769 46.36 35.769 C 44.544 35.769 42.933 35.351 41.526 34.516 C 40.12 33.681 39.024 32.487 38.238 30.935 C 37.452 29.382 37.039 27.6 37 25.588 L 37 24.387 C 37 22.297 37.383 20.454 38.15 18.857 C 38.917 17.26 40.015 16.028 41.446 15.158 C 42.876 14.289 44.505 13.855 46.331 13.855 C 48.138 13.855 49.749 14.284 51.165 15.144 C 52.581 16.003 53.682 17.226 54.468 18.813 C 55.254 20.4 55.652 22.219 55.662 24.27 L 55.662 25.251 Z  M 50.433 24.358 C 50.433 22.238 50.079 20.63 49.371 19.531 C 48.663 18.432 47.649 17.883 46.331 17.883 C 43.753 17.883 42.391 19.817 42.244 23.684 L 42.229 25.251 C 42.229 27.341 42.576 28.947 43.27 30.07 C 43.963 31.194 44.993 31.755 46.36 31.755 C 47.659 31.755 48.66 31.203 49.363 30.1 C 50.066 28.996 50.423 27.409 50.433 25.339 L 50.433 24.358 Z " fill-rule="evenodd" fill="rgb(18,100,180)"/><path d=" M 131.272 25.812 L 123.187 25.812 L 123.187 30.895 L 132.737 30.895 L 132.737 34.851 L 118.045 34.851 L 118.045 13.522 L 132.767 13.522 L 132.767 17.492 L 123.187 17.492 L 123.187 21.989 L 131.272 21.989 L 131.272 25.812 Z " fill="rgb(18,100,180)"/><path d=" M 145.833 29.182 C 145.833 28.43 145.567 27.844 145.035 27.424 C 144.502 27.004 143.567 26.569 142.229 26.12 C 140.892 25.671 139.798 25.236 138.948 24.816 C 136.185 23.459 134.803 21.594 134.803 19.221 C 134.803 18.039 135.147 16.997 135.835 16.093 C 136.524 15.19 137.498 14.487 138.758 13.984 C 140.018 13.481 141.434 13.229 143.006 13.229 C 144.539 13.229 145.914 13.503 147.129 14.05 C 148.345 14.597 149.29 15.375 149.964 16.386 C 150.638 17.397 150.975 18.552 150.975 19.851 L 145.848 19.851 C 145.848 18.981 145.582 18.308 145.049 17.829 C 144.517 17.351 143.797 17.111 142.889 17.111 C 141.971 17.111 141.246 17.314 140.713 17.719 C 140.181 18.124 139.915 18.64 139.915 19.265 C 139.915 19.811 140.208 20.307 140.794 20.751 C 141.38 21.196 142.41 21.655 143.885 22.128 C 145.359 22.602 146.57 23.112 147.518 23.659 C 149.822 24.987 150.975 26.818 150.975 29.152 C 150.975 31.018 150.271 32.482 148.865 33.547 C 147.459 34.611 145.53 35.144 143.079 35.144 C 141.351 35.144 139.786 34.833 138.384 34.213 C 136.983 33.593 135.928 32.744 135.22 31.665 C 134.512 30.585 134.158 29.343 134.158 27.936 L 139.314 27.936 C 139.314 29.079 139.61 29.921 140.201 30.463 C 140.792 31.005 141.751 31.276 143.079 31.276 C 143.929 31.276 144.6 31.093 145.093 30.727 C 145.586 30.361 145.833 29.846 145.833 29.182 Z " fill="rgb(18,100,180)"/></g></svg>